# xmcd
# 
# Track frame offsets:
#     150
#     22592
#     42282
#     66840
#     89222
# 
# Disc length: 1450
# 
# Revision: 0
# Processed by: cddbd v1.5.2PL0 Copyright (c) Steve Scherf et al.
# Submitted via: fre:ac v1.0.17
# 
DISCID=3905a805
DTITLE=大塚愛 - 恋愛写真
DYEAR=2006
DGENRE=JPop
TTITLE0=恋愛写真
TTITLE1=ハニカミジェーン
TTITLE2=羽ありたまご
TTITLE3=恋愛写真(Instrumental)
TTITLE4=ハニカミジェーン(Instrumental)
EXTD=
EXTT0=
EXTT1=
EXTT2=
EXTT3=
EXTT4=
PLAYORDER=
